<svg width="287" height="39" viewBox="0 0 287 39" fill="none" xmlns="http://www.w3.org/2000/svg">
<path d="M11.7041 38.472L9.80007 37.016L18.0881 25.2C16.4827 25.872 14.7841 26.208 12.9921 26.208C9.25874 26.208 6.16007 24.976 3.69607 22.512C1.23207 20.048 7.04527e-05 16.9307 7.04527e-05 13.16C7.04527e-05 9.38935 1.25074 6.25335 3.75207 3.75202C6.2534 1.25068 9.4454 1.4782e-05 13.3281 1.4782e-05C17.1361 1.4782e-05 20.2907 1.25068 22.7921 3.75202C25.2934 6.25335 26.5441 9.40802 26.5441 13.216C26.5441 15.9414 25.7414 18.48 24.1361 20.832L11.7041 38.472ZM20.8881 5.37602C18.8721 3.28535 16.3334 2.24002 13.2721 2.24002C10.2107 2.24002 7.6534 3.28535 5.60007 5.37602C3.58407 7.46668 2.57607 10.0427 2.57607 13.104C2.57607 16.2773 3.58407 18.8907 5.60007 20.944C7.6534 22.96 10.2107 23.968 13.2721 23.968C16.3707 23.968 18.9281 22.9414 20.9441 20.888C22.9601 18.8347 23.9681 16.24 23.9681 13.104C23.9681 10.0053 22.9414 7.42935 20.8881 5.37602ZM36.7838 37.856V2.74402H30.9598L32.0798 0.504015H39.2478V37.856H36.7838ZM55.5416 37.856V2.74402H49.7176L50.8376 0.504015H58.0056V37.856H55.5416ZM119.004 4.87202V8.12002C117.398 6.25335 115.494 4.81602 113.292 3.80802C111.126 2.76268 108.83 2.24002 106.404 2.24002C101.662 2.24002 97.6862 3.90135 94.4756 7.22402C91.2649 10.5467 89.6596 14.5973 89.6596 19.376C89.6596 22.0267 90.1636 24.4534 91.1716 26.656C92.2169 28.8587 93.5609 30.6507 95.2036 32.032C96.8836 33.376 98.6942 34.4214 100.636 35.168C102.577 35.8774 104.518 36.232 106.46 36.232C108.55 36.232 110.716 35.784 112.956 34.888C115.196 33.9547 117.212 32.5174 119.004 30.576V33.824C115.494 36.9227 111.35 38.472 106.572 38.472C101.046 38.472 96.4169 36.5867 92.6836 32.816C88.9502 29.0454 87.0836 24.528 87.0836 19.264C87.0836 13.888 88.9689 9.33335 92.7396 5.60002C96.5102 1.86668 101.084 1.4782e-05 106.46 1.4782e-05C111.388 1.4782e-05 115.569 1.62402 119.004 4.87202ZM142.887 18.984V15.008H145.127V37.856H142.887V33.768C140.833 36.904 137.865 38.472 133.983 38.472C130.884 38.472 128.252 37.3707 126.087 35.168C123.921 32.9654 122.839 30.0534 122.839 26.432C122.839 22.8854 123.865 20.0107 125.919 17.808C127.972 15.6054 130.66 14.504 133.983 14.504C137.791 14.504 140.759 15.9974 142.887 18.984ZM134.095 16.632C131.668 16.632 129.577 17.5094 127.823 19.264C126.068 20.9814 125.191 23.3147 125.191 26.264C125.191 28.9894 125.993 31.36 127.599 33.376C129.204 35.3547 131.388 36.344 134.151 36.344C136.876 36.344 139.023 35.3734 140.591 33.432C142.196 31.4534 142.999 29.064 142.999 26.264C142.999 23.1654 142.084 20.7947 140.255 19.152C138.425 17.472 136.372 16.632 134.095 16.632ZM153.17 37.856V15.008H155.41V17.976C156.418 15.6614 158.098 14.504 160.45 14.504C161.346 14.504 162.148 14.6907 162.858 15.064L161.738 17.08C161.327 16.7814 160.767 16.632 160.058 16.632C158.975 16.632 158.079 16.9494 157.37 17.584C156.698 18.1814 156.231 19.04 155.97 20.16C155.746 21.2427 155.596 22.1574 155.522 22.904C155.447 23.6507 155.41 24.5467 155.41 25.592V37.856H153.17ZM167.717 37.856V15.008H169.957V17.976C170.965 15.6614 172.645 14.504 174.997 14.504C175.893 14.504 176.695 14.6907 177.405 15.064L176.285 17.08C175.874 16.7814 175.314 16.632 174.605 16.632C173.522 16.632 172.626 16.9494 171.917 17.584C171.245 18.1814 170.778 19.04 170.517 20.16C170.293 21.2427 170.143 22.1574 170.069 22.904C169.994 23.6507 169.957 24.5467 169.957 25.592V37.856H167.717ZM202.703 26.712H183.159C183.159 29.5494 184.037 31.864 185.791 33.656C187.583 35.448 189.73 36.344 192.231 36.344C194.023 36.344 195.61 35.8774 196.991 34.944C198.373 33.9734 199.437 32.704 200.183 31.136L202.087 32.256C201.229 33.8987 199.978 35.3547 198.335 36.624C196.693 37.856 194.602 38.472 192.063 38.472C188.591 38.472 185.847 37.352 183.831 35.112C181.815 32.8347 180.807 29.9787 180.807 26.544C180.807 22.7734 181.89 19.824 184.055 17.696C186.258 15.568 188.871 14.504 191.895 14.504C194.994 14.504 197.57 15.6427 199.623 17.92C201.677 20.1974 202.703 23.128 202.703 26.712ZM183.327 24.584H200.351C200.053 22.2694 199.119 20.3654 197.551 18.872C196.021 17.3787 194.135 16.632 191.895 16.632C189.618 16.632 187.695 17.3974 186.127 18.928C184.559 20.4214 183.626 22.3067 183.327 24.584ZM209.334 37.856V15.008H211.574V17.976C212.582 15.6614 214.262 14.504 216.614 14.504C217.51 14.504 218.312 14.6907 219.022 15.064L217.902 17.08C217.491 16.7814 216.931 16.632 216.222 16.632C215.139 16.632 214.243 16.9494 213.534 17.584C212.862 18.1814 212.395 19.04 212.134 20.16C211.91 21.2427 211.76 22.1574 211.686 22.904C211.611 23.6507 211.574 24.5467 211.574 25.592V37.856H209.334ZM241.871 18.984V15.008H244.111V37.856H241.871V33.768C239.818 36.904 236.85 38.472 232.967 38.472C229.868 38.472 227.236 37.3707 225.071 35.168C222.906 32.9654 221.823 30.0534 221.823 26.432C221.823 22.8854 222.85 20.0107 224.903 17.808C226.956 15.6054 229.644 14.504 232.967 14.504C236.775 14.504 239.743 15.9974 241.871 18.984ZM233.079 16.632C230.652 16.632 228.562 17.5094 226.807 19.264C225.052 20.9814 224.175 23.3147 224.175 26.264C224.175 28.9894 224.978 31.36 226.583 33.376C228.188 35.3547 230.372 36.344 233.135 36.344C235.86 36.344 238.007 35.3734 239.575 33.432C241.18 31.4534 241.983 29.064 241.983 26.264C241.983 23.1654 241.068 20.7947 239.239 19.152C237.41 17.472 235.356 16.632 233.079 16.632ZM285.048 5.32002L283.256 6.83202C281.688 3.77068 279.243 2.24002 275.92 2.24002C273.792 2.24002 272.094 2.91202 270.824 4.25602C269.592 5.60002 268.976 7.24268 268.976 9.18402C268.976 10.1547 269.107 10.9947 269.368 11.704C269.667 12.4134 270.171 13.0667 270.88 13.664C271.627 14.2614 272.28 14.728 272.84 15.064C273.4 15.3627 274.296 15.8107 275.528 16.408C279.56 18.3493 282.043 19.656 282.976 20.328C285.627 22.1574 286.952 24.5654 286.952 27.552C286.952 30.6507 285.814 33.2454 283.536 35.336C281.259 37.4267 278.515 38.472 275.304 38.472C271.758 38.472 268.864 37.1654 266.624 34.552C265.542 33.2827 264.739 31.92 264.216 30.464L266.344 29.456C266.792 30.8 267.464 31.9947 268.36 33.04C270.04 35.168 272.374 36.232 275.36 36.232C277.899 36.232 280.027 35.4107 281.744 33.768C283.499 32.1254 284.376 30.072 284.376 27.608C284.376 25.1814 283.163 23.2214 280.736 21.728C279.654 21.0934 277.544 20.0107 274.408 18.48C272.355 17.472 270.843 16.6507 269.872 16.016C268.939 15.3814 268.174 14.56 267.576 13.552C266.792 12.2454 266.4 10.8267 266.4 9.29602C266.4 6.86935 267.222 4.72268 268.864 2.85602C270.507 0.952016 272.878 1.4782e-05 275.976 1.4782e-05C277.88 1.4782e-05 279.635 0.466682 281.24 1.40002C282.846 2.29602 284.115 3.60268 285.048 5.32002Z" fill="black"/>
</svg>
