<svg width="184" height="28" viewBox="0 0 184 28" fill="none" xmlns="http://www.w3.org/2000/svg">
<rect x="40" width="144" height="28" rx="14" fill="black"/>
<rect width="28" height="28" rx="14" fill="#E7E8EA"/>
<path d="M14.003 13.8498C12.7255 13.8498 11.6263 12.782 11.6263 11.4027C11.6263 10.04 12.7314 9 14.003 9C15.2745 9 16.3797 10.0178 16.3797 11.3915C16.3797 12.782 15.2745 13.8498 14.003 13.8498ZM10.016 19C9.38027 19 9 18.7219 9 18.2603C9 16.8254 10.9192 14.8454 13.997 14.8454C17.0808 14.8454 19 16.8254 19 18.2603C19 18.7219 18.6197 19 17.984 19H10.016Z" fill="black"/>
<path d="M55.3632 13.1696L64.0763 9.09221C64.7013 8.79944 65.2097 9.24125 64.9131 9.89066L60.8559 18.6098C60.5804 19.206 59.7753 19.0995 59.77 18.4235L59.7595 14.3247C59.7595 14.2715 59.7383 14.2502 59.6853 14.2502L55.5804 14.2343C54.9395 14.2343 54.7753 13.4464 55.3632 13.1696ZM56.0306 13.6008L60.0667 13.5848C60.2838 13.5848 60.4109 13.7232 60.4109 13.9202L60.3951 17.9923C60.3951 18.0189 60.4268 18.0243 60.4374 17.9976L64.2246 9.82678C64.251 9.77355 64.214 9.74694 64.1663 9.76823L56.0253 13.5582C55.9988 13.5689 55.9988 13.6008 56.0306 13.6008Z" fill="white"/>
<path d="M80.0198 9.996V10.836H77.2598V13.2H79.9238V14.04H77.2598V18H76.3718V9.996H80.0198ZM81.359 13.02H82.223V18H81.359V13.02ZM81.359 11.568C81.239 11.448 81.179 11.304 81.179 11.136C81.179 10.968 81.239 10.824 81.359 10.704C81.479 10.584 81.623 10.524 81.791 10.524C81.959 10.524 82.103 10.584 82.223 10.704C82.343 10.824 82.403 10.968 82.403 11.136C82.403 11.304 82.343 11.448 82.223 11.568C82.103 11.688 81.959 11.748 81.791 11.748C81.623 11.748 81.479 11.688 81.359 11.568ZM83.8551 18V13.02H84.7191V13.596C85.0711 13.132 85.5471 12.9 86.1471 12.9C86.7871 12.9 87.2631 13.128 87.5751 13.584C87.7671 13.864 87.8631 14.308 87.8631 14.916V18H86.9991V14.94C86.9991 14.532 86.9231 14.228 86.7711 14.028C86.5871 13.788 86.3151 13.668 85.9551 13.668C85.5871 13.668 85.2951 13.796 85.0791 14.052C84.8391 14.332 84.7191 14.78 84.7191 15.396V18H83.8551ZM93.3078 13.728V9.252H94.1718V18H93.3078V17.304C92.8758 17.864 92.3078 18.144 91.6038 18.144C90.9318 18.144 90.3598 17.912 89.8878 17.448C89.4158 16.984 89.1798 16.336 89.1798 15.504C89.1798 14.688 89.4118 14.052 89.8758 13.596C90.3478 13.132 90.9238 12.9 91.6038 12.9C92.3238 12.9 92.8918 13.176 93.3078 13.728ZM91.6998 13.668C91.2438 13.668 90.8558 13.832 90.5358 14.16C90.2238 14.48 90.0678 14.928 90.0678 15.504C90.0678 16.056 90.2118 16.508 90.4998 16.86C90.7958 17.204 91.1958 17.376 91.6998 17.376C92.2038 17.376 92.6038 17.196 92.8998 16.836C93.2038 16.476 93.3558 16.036 93.3558 15.516C93.3558 14.924 93.1878 14.468 92.8518 14.148C92.5158 13.828 92.1318 13.668 91.6998 13.668ZM98.825 9.996H100.277C101.189 9.996 101.861 10.184 102.293 10.56C102.781 10.976 103.025 11.548 103.025 12.276C103.025 12.9 102.813 13.432 102.389 13.872C101.973 14.304 101.341 14.52 100.493 14.52H99.713V18H98.825V9.996ZM99.713 10.836V13.68H100.445C100.973 13.68 101.385 13.552 101.681 13.296C101.985 13.04 102.137 12.684 102.137 12.228C102.137 11.3 101.549 10.836 100.373 10.836H99.713ZM108.212 17.4C107.716 17.896 107.088 18.144 106.328 18.144C105.568 18.144 104.936 17.896 104.432 17.4C103.936 16.904 103.688 16.28 103.688 15.528C103.688 14.768 103.936 14.14 104.432 13.644C104.936 13.148 105.568 12.9 106.328 12.9C107.088 12.9 107.716 13.148 108.212 13.644C108.716 14.14 108.968 14.768 108.968 15.528C108.968 16.28 108.716 16.904 108.212 17.4ZM107.564 14.16C107.228 13.832 106.816 13.668 106.328 13.668C105.84 13.668 105.424 13.836 105.08 14.172C104.744 14.5 104.576 14.952 104.576 15.528C104.576 16.104 104.748 16.556 105.092 16.884C105.436 17.212 105.848 17.376 106.328 17.376C106.808 17.376 107.22 17.212 107.564 16.884C107.908 16.556 108.08 16.104 108.08 15.528C108.08 14.944 107.908 14.488 107.564 14.16ZM110.293 18V13.02H111.157V13.56C111.437 13.12 111.813 12.9 112.285 12.9C112.525 12.9 112.781 12.968 113.053 13.104L112.645 13.884C112.485 13.772 112.317 13.716 112.141 13.716C111.837 13.716 111.605 13.82 111.445 14.028C111.253 14.284 111.157 14.732 111.157 15.372V18H110.293ZM116.474 13.8L115.766 14.172C115.63 13.836 115.398 13.668 115.07 13.668C114.902 13.668 114.758 13.716 114.638 13.812C114.526 13.908 114.47 14.048 114.47 14.232C114.47 14.4 114.522 14.528 114.626 14.616C114.738 14.696 114.954 14.804 115.274 14.94C115.906 15.204 116.322 15.46 116.522 15.708C116.698 15.924 116.786 16.192 116.786 16.512C116.786 17.016 116.622 17.416 116.294 17.712C115.974 18 115.566 18.144 115.07 18.144C114.974 18.144 114.87 18.132 114.758 18.108C114.646 18.092 114.49 18.052 114.29 17.988C114.098 17.916 113.914 17.784 113.738 17.592C113.562 17.4 113.426 17.16 113.33 16.872L114.074 16.56C114.274 17.104 114.61 17.376 115.082 17.376C115.346 17.376 115.546 17.296 115.682 17.136C115.826 16.976 115.898 16.792 115.898 16.584C115.898 16.472 115.878 16.376 115.838 16.296C115.806 16.208 115.746 16.132 115.658 16.068C115.578 16.004 115.498 15.952 115.418 15.912C115.346 15.872 115.238 15.82 115.094 15.756C114.454 15.476 114.05 15.232 113.882 15.024C113.73 14.832 113.654 14.588 113.654 14.292C113.654 13.86 113.786 13.52 114.05 13.272C114.322 13.024 114.674 12.9 115.106 12.9C115.738 12.9 116.194 13.2 116.474 13.8ZM121.833 13.38V14.412C121.441 13.916 120.921 13.668 120.273 13.668C119.785 13.668 119.369 13.836 119.025 14.172C118.681 14.5 118.509 14.952 118.509 15.528C118.509 16.104 118.681 16.556 119.025 16.884C119.369 17.212 119.781 17.376 120.261 17.376C120.901 17.376 121.437 17.116 121.869 16.596V17.628C121.397 17.972 120.869 18.144 120.285 18.144C119.509 18.144 118.869 17.9 118.365 17.412C117.869 16.916 117.621 16.292 117.621 15.54C117.621 14.78 117.873 14.152 118.377 13.656C118.881 13.152 119.517 12.9 120.285 12.9C120.861 12.9 121.377 13.06 121.833 13.38ZM123.195 18V9.252H124.059V13.596C124.411 13.132 124.887 12.9 125.487 12.9C126.127 12.9 126.603 13.128 126.915 13.584C127.107 13.864 127.203 14.308 127.203 14.916V18H126.339V14.94C126.339 14.532 126.263 14.228 126.111 14.028C125.927 13.788 125.655 13.668 125.295 13.668C124.927 13.668 124.635 13.796 124.419 14.052C124.179 14.332 124.059 14.78 124.059 15.396V18H123.195ZM132.528 16.332L133.248 16.728C133.08 17.048 132.876 17.316 132.636 17.532C132.18 17.94 131.628 18.144 130.98 18.144C130.308 18.144 129.728 17.928 129.24 17.496C128.76 17.056 128.52 16.404 128.52 15.54C128.52 14.78 128.736 14.152 129.168 13.656C129.608 13.152 130.196 12.9 130.932 12.9C131.764 12.9 132.392 13.204 132.816 13.812C133.152 14.292 133.308 14.916 133.284 15.684H129.408C129.416 16.188 129.572 16.596 129.876 16.908C130.18 17.22 130.552 17.376 130.992 17.376C131.384 17.376 131.724 17.256 132.012 17.016C132.236 16.824 132.408 16.596 132.528 16.332ZM129.468 14.964H132.396C132.324 14.572 132.152 14.26 131.88 14.028C131.616 13.788 131.3 13.668 130.932 13.668C130.572 13.668 130.252 13.792 129.972 14.04C129.7 14.28 129.532 14.588 129.468 14.964ZM143.746 10.656V11.76C143.426 11.44 143.078 11.192 142.702 11.016C142.246 10.808 141.786 10.704 141.322 10.704C140.402 10.704 139.634 11.028 139.018 11.676C138.41 12.316 138.106 13.104 138.106 14.04C138.106 15.048 138.438 15.844 139.102 16.428C139.774 17.012 140.518 17.304 141.334 17.304C141.846 17.304 142.342 17.18 142.822 16.932C143.158 16.764 143.466 16.54 143.746 16.26V17.364C143.018 17.884 142.214 18.144 141.334 18.144C140.15 18.144 139.162 17.748 138.37 16.956C137.586 16.164 137.194 15.188 137.194 14.028C137.194 12.836 137.59 11.844 138.382 11.052C139.182 10.26 140.182 9.864 141.382 9.864C142.262 9.864 143.05 10.128 143.746 10.656ZM148.864 16.332L149.584 16.728C149.416 17.048 149.212 17.316 148.972 17.532C148.516 17.94 147.964 18.144 147.316 18.144C146.644 18.144 146.064 17.928 145.576 17.496C145.096 17.056 144.856 16.404 144.856 15.54C144.856 14.78 145.072 14.152 145.504 13.656C145.944 13.152 146.532 12.9 147.268 12.9C148.1 12.9 148.728 13.204 149.152 13.812C149.488 14.292 149.644 14.916 149.62 15.684H145.744C145.752 16.188 145.908 16.596 146.212 16.908C146.516 17.22 146.888 17.376 147.328 17.376C147.72 17.376 148.06 17.256 148.348 17.016C148.572 16.824 148.744 16.596 148.864 16.332ZM145.804 14.964H148.732C148.66 14.572 148.488 14.26 148.216 14.028C147.952 13.788 147.636 13.668 147.268 13.668C146.908 13.668 146.588 13.792 146.308 14.04C146.036 14.28 145.868 14.588 145.804 14.964ZM150.945 18V13.02H151.809V13.596C152.161 13.132 152.637 12.9 153.237 12.9C153.877 12.9 154.353 13.128 154.665 13.584C154.857 13.864 154.953 14.308 154.953 14.916V18H154.089V14.94C154.089 14.532 154.013 14.228 153.861 14.028C153.677 13.788 153.405 13.668 153.045 13.668C152.677 13.668 152.385 13.796 152.169 14.052C151.929 14.332 151.809 14.78 151.809 15.396V18H150.945ZM158.334 13.812H157.47V18H156.606V13.812H156.078V13.02H156.606V11.22H157.47V13.02H158.334V13.812ZM162.844 16.332L163.564 16.728C163.396 17.048 163.192 17.316 162.952 17.532C162.496 17.94 161.944 18.144 161.296 18.144C160.624 18.144 160.044 17.928 159.556 17.496C159.076 17.056 158.836 16.404 158.836 15.54C158.836 14.78 159.052 14.152 159.484 13.656C159.924 13.152 160.512 12.9 161.248 12.9C162.08 12.9 162.708 13.204 163.132 13.812C163.468 14.292 163.624 14.916 163.6 15.684H159.724C159.732 16.188 159.888 16.596 160.192 16.908C160.496 17.22 160.868 17.376 161.308 17.376C161.7 17.376 162.04 17.256 162.328 17.016C162.552 16.824 162.724 16.596 162.844 16.332ZM159.784 14.964H162.712C162.64 14.572 162.468 14.26 162.196 14.028C161.932 13.788 161.616 13.668 161.248 13.668C160.888 13.668 160.568 13.792 160.288 14.04C160.016 14.28 159.848 14.588 159.784 14.964ZM164.925 18V13.02H165.789V13.56C166.069 13.12 166.445 12.9 166.917 12.9C167.157 12.9 167.413 12.968 167.685 13.104L167.277 13.884C167.117 13.772 166.949 13.716 166.773 13.716C166.469 13.716 166.237 13.82 166.077 14.028C165.885 14.284 165.789 14.732 165.789 15.372V18H164.925Z" fill="white"/>
</svg>
