<svg width="129" height="20" viewBox="0 0 129 20" fill="none" xmlns="http://www.w3.org/2000/svg">
<path d="M6.21274 6.964L5.38674 7.51C5.23741 7.22067 5.05541 6.98733 4.84074 6.81C4.56074 6.59533 4.21074 6.488 3.79074 6.488C3.32408 6.488 2.94608 6.62333 2.65674 6.894C2.36741 7.15533 2.22274 7.50067 2.22274 7.93C2.22274 8.24733 2.33941 8.518 2.57274 8.742C2.75941 8.92867 3.08608 9.12467 3.55274 9.33L4.44874 9.722C5.11141 10.0113 5.59208 10.3053 5.89074 10.604C6.33874 11.052 6.56274 11.6167 6.56274 12.298C6.56274 13.1473 6.28274 13.838 5.72274 14.37C5.16274 14.902 4.45808 15.168 3.60874 15.168C2.76874 15.168 2.09208 14.916 1.57874 14.412C1.15874 14.0013 0.869409 13.4507 0.710742 12.76L1.71874 12.48C1.78408 12.9467 1.97074 13.3433 2.27874 13.67C2.62408 14.0153 3.07208 14.188 3.62274 14.188C4.22008 14.188 4.68208 14.0107 5.00874 13.656C5.33541 13.292 5.49874 12.8533 5.49874 12.34C5.49874 11.892 5.34474 11.528 5.03674 11.248C4.85941 11.08 4.48608 10.8653 3.91674 10.604L3.07674 10.212C2.50741 9.95067 2.09208 9.694 1.83074 9.442C1.40141 9.03133 1.18674 8.52267 1.18674 7.916C1.18674 7.19733 1.42941 6.61867 1.91474 6.18C2.40941 5.732 3.03941 5.508 3.80474 5.508C4.38341 5.508 4.88274 5.648 5.30274 5.928C5.68541 6.18 5.98874 6.52533 6.21274 6.964ZM12.6608 10.016V9.19H13.6688V15H12.6608V14.188C12.1568 14.8413 11.4942 15.168 10.6728 15.168C9.88884 15.168 9.2215 14.8973 8.67084 14.356C8.12017 13.8147 7.84484 13.0587 7.84484 12.088C7.84484 11.136 8.1155 10.394 8.65684 9.862C9.2075 9.32067 9.8795 9.05 10.6728 9.05C11.5128 9.05 12.1755 9.372 12.6608 10.016ZM10.7848 9.946C10.2528 9.946 9.80017 10.1373 9.42684 10.52C9.06284 10.8933 8.88084 11.416 8.88084 12.088C8.88084 12.732 9.04884 13.2593 9.38484 13.67C9.73017 14.0713 10.1968 14.272 10.7848 14.272C11.3728 14.272 11.8395 14.062 12.1848 13.642C12.5395 13.222 12.7168 12.7087 12.7168 12.102C12.7168 11.4113 12.5208 10.8793 12.1288 10.506C11.7368 10.1327 11.2888 9.946 10.7848 9.946ZM14.738 9.19H15.858L17.594 13.11L19.33 9.19H20.45L17.594 15.378L14.738 9.19ZM25.8236 13.054L26.6636 13.516C26.4676 13.8893 26.2296 14.202 25.9496 14.454C25.4176 14.93 24.7736 15.168 24.0176 15.168C23.2336 15.168 22.5569 14.916 21.9876 14.412C21.4276 13.8987 21.1476 13.138 21.1476 12.13C21.1476 11.2433 21.3996 10.5107 21.9036 9.932C22.4169 9.344 23.1029 9.05 23.9616 9.05C24.9322 9.05 25.6649 9.40467 26.1596 10.114C26.5516 10.674 26.7336 11.402 26.7056 12.298H22.1836C22.1929 12.886 22.3749 13.362 22.7296 13.726C23.0842 14.09 23.5182 14.272 24.0316 14.272C24.4889 14.272 24.8856 14.132 25.2216 13.852C25.4829 13.628 25.6836 13.362 25.8236 13.054ZM22.2536 11.458H25.6696C25.5856 11.0007 25.3849 10.6367 25.0676 10.366C24.7596 10.086 24.3909 9.946 23.9616 9.946C23.5416 9.946 23.1682 10.0907 22.8416 10.38C22.5242 10.66 22.3282 11.0193 22.2536 11.458ZM36.0694 9.61V10.814C35.612 10.2353 35.0054 9.946 34.2494 9.946C33.68 9.946 33.1947 10.142 32.7934 10.534C32.392 10.9167 32.1914 11.444 32.1914 12.116C32.1914 12.788 32.392 13.3153 32.7934 13.698C33.1947 14.0807 33.6754 14.272 34.2354 14.272C34.982 14.272 35.6074 13.9687 36.1114 13.362V14.566C35.5607 14.9673 34.9447 15.168 34.2634 15.168C33.358 15.168 32.6114 14.8833 32.0234 14.314C31.4447 13.7353 31.1554 13.0073 31.1554 12.13C31.1554 11.2433 31.4494 10.5107 32.0374 9.932C32.6254 9.344 33.3674 9.05 34.2634 9.05C34.9354 9.05 35.5374 9.23667 36.0694 9.61ZM42.5721 14.3C41.9934 14.8787 41.2607 15.168 40.3741 15.168C39.4874 15.168 38.7501 14.8787 38.1621 14.3C37.5834 13.7213 37.2941 12.9933 37.2941 12.116C37.2941 11.2293 37.5834 10.4967 38.1621 9.918C38.7501 9.33933 39.4874 9.05 40.3741 9.05C41.2607 9.05 41.9934 9.33933 42.5721 9.918C43.1601 10.4967 43.4541 11.2293 43.4541 12.116C43.4541 12.9933 43.1601 13.7213 42.5721 14.3ZM41.8161 10.52C41.4241 10.1373 40.9434 9.946 40.3741 9.946C39.8047 9.946 39.3194 10.142 38.9181 10.534C38.5261 10.9167 38.3301 11.444 38.3301 12.116C38.3301 12.788 38.5307 13.3153 38.9321 13.698C39.3334 14.0807 39.8141 14.272 40.3741 14.272C40.9341 14.272 41.4147 14.0807 41.8161 13.698C42.2174 13.3153 42.4181 12.788 42.4181 12.116C42.4181 11.4347 42.2174 10.9027 41.8161 10.52ZM44.9999 15V9.19H46.0079V9.862C46.4185 9.32067 46.9739 9.05 47.6739 9.05C48.4205 9.05 48.9759 9.316 49.3399 9.848C49.5639 10.1747 49.6759 10.6927 49.6759 11.402V15H48.6679V11.43C48.6679 10.954 48.5792 10.5993 48.4019 10.366C48.1872 10.086 47.8699 9.946 47.4499 9.946C47.0205 9.946 46.6799 10.0953 46.4279 10.394C46.1479 10.7207 46.0079 11.2433 46.0079 11.962V15H44.9999ZM54.04 10.114H52.612V15H51.604V10.114H51.044V9.19H51.604V7.006C51.604 6.306 51.716 5.79733 51.94 5.48C52.3227 4.91067 52.962 4.626 53.858 4.626C54.7727 4.626 55.412 4.91067 55.776 5.48C56 5.844 56.112 6.35267 56.112 7.006V7.244H55.104V7.006C55.104 6.60467 55.0387 6.30133 54.908 6.096C54.712 5.79733 54.362 5.648 53.858 5.648C53.354 5.648 53.004 5.79733 52.808 6.096C52.6774 6.28267 52.612 6.586 52.612 7.006V9.19H54.04V10.114ZM55.104 9.19H56.112V15H55.104V9.19ZM62.4675 10.016V9.19H63.4755V14.86C63.4755 15.8773 63.2888 16.638 62.9155 17.142C62.3835 17.8607 61.6088 18.22 60.5915 18.22C59.7328 18.22 59.0421 17.9587 58.5195 17.436C58.0155 16.932 57.7635 16.3067 57.7635 15.56H58.7575C58.7575 16.0267 58.9068 16.428 59.2055 16.764C59.5415 17.1373 60.0081 17.324 60.6055 17.324C61.3055 17.324 61.8188 17.0533 62.1455 16.512C62.3601 16.1667 62.4675 15.672 62.4675 15.028V14.188C61.9635 14.8413 61.3008 15.168 60.4795 15.168C59.6768 15.168 59.0141 14.9067 58.4915 14.384C57.9315 13.824 57.6515 13.0587 57.6515 12.088C57.6515 11.1453 57.9315 10.394 58.4915 9.834C59.0328 9.31133 59.6955 9.05 60.4795 9.05C61.3101 9.05 61.9728 9.372 62.4675 10.016ZM60.5915 9.946C60.0781 9.946 59.6395 10.128 59.2755 10.492C58.8835 10.8933 58.6875 11.4253 58.6875 12.088C58.6875 12.8253 58.9068 13.3947 59.3455 13.796C59.6908 14.1133 60.1061 14.272 60.5915 14.272C61.1141 14.272 61.5388 14.1087 61.8655 13.782C62.3041 13.362 62.5235 12.802 62.5235 12.102C62.5235 11.402 62.3181 10.856 61.9075 10.464C61.5621 10.1187 61.1235 9.946 60.5915 9.946ZM66.3926 9.19V12.578C66.3926 13.166 66.486 13.5813 66.6726 13.824C66.906 14.1227 67.2466 14.272 67.6946 14.272C68.1426 14.272 68.4833 14.1227 68.7166 13.824C68.9033 13.5813 68.9966 13.166 68.9966 12.578V9.19H70.0046V12.69C70.0046 13.474 69.8273 14.0573 69.4726 14.44C69.0153 14.9253 68.4226 15.168 67.6946 15.168C66.9666 15.168 66.374 14.9253 65.9166 14.44C65.562 14.0573 65.3846 13.474 65.3846 12.69V9.19H66.3926ZM71.9061 15V9.19H72.9141V9.82C73.2408 9.30667 73.6794 9.05 74.2301 9.05C74.5101 9.05 74.8088 9.12933 75.1261 9.288L74.6501 10.198C74.4634 10.0673 74.2674 10.002 74.0621 10.002C73.7074 10.002 73.4368 10.1233 73.2501 10.366C73.0261 10.6647 72.9141 11.1873 72.9141 11.934V15H71.9061ZM80.1999 10.016V9.19H81.2079V15H80.1999V14.188C79.6959 14.8413 79.0332 15.168 78.2119 15.168C77.4279 15.168 76.7606 14.8973 76.2099 14.356C75.6592 13.8147 75.3839 13.0587 75.3839 12.088C75.3839 11.136 75.6546 10.394 76.1959 9.862C76.7466 9.32067 77.4186 9.05 78.2119 9.05C79.0519 9.05 79.7146 9.372 80.1999 10.016ZM78.3239 9.946C77.7919 9.946 77.3392 10.1373 76.9659 10.52C76.6019 10.8933 76.4199 11.416 76.4199 12.088C76.4199 12.732 76.5879 13.2593 76.9239 13.67C77.2692 14.0713 77.7359 14.272 78.3239 14.272C78.9119 14.272 79.3786 14.062 79.7239 13.642C80.0786 13.222 80.2559 12.7087 80.2559 12.102C80.2559 11.4113 80.0599 10.8793 79.6679 10.506C79.2759 10.1327 78.8279 9.946 78.3239 9.946ZM85.161 10.114H84.153V15H83.145V10.114H82.529V9.19H83.145V7.09H84.153V9.19H85.161V10.114ZM86.1112 9.19H87.1192V15H86.1112V9.19ZM86.1112 7.496C85.9712 7.356 85.9012 7.188 85.9012 6.992C85.9012 6.796 85.9712 6.628 86.1112 6.488C86.2512 6.348 86.4192 6.278 86.6152 6.278C86.8112 6.278 86.9792 6.348 87.1192 6.488C87.2592 6.628 87.3292 6.796 87.3292 6.992C87.3292 7.188 87.2592 7.356 87.1192 7.496C86.9792 7.636 86.8112 7.706 86.6152 7.706C86.4192 7.706 86.2512 7.636 86.1112 7.496ZM93.9373 14.3C93.3586 14.8787 92.626 15.168 91.7393 15.168C90.8526 15.168 90.1153 14.8787 89.5273 14.3C88.9486 13.7213 88.6593 12.9933 88.6593 12.116C88.6593 11.2293 88.9486 10.4967 89.5273 9.918C90.1153 9.33933 90.8526 9.05 91.7393 9.05C92.626 9.05 93.3586 9.33933 93.9373 9.918C94.5253 10.4967 94.8193 11.2293 94.8193 12.116C94.8193 12.9933 94.5253 13.7213 93.9373 14.3ZM93.1813 10.52C92.7893 10.1373 92.3086 9.946 91.7393 9.946C91.17 9.946 90.6846 10.142 90.2833 10.534C89.8913 10.9167 89.6953 11.444 89.6953 12.116C89.6953 12.788 89.896 13.3153 90.2973 13.698C90.6986 14.0807 91.1793 14.272 91.7393 14.272C92.2993 14.272 92.78 14.0807 93.1813 13.698C93.5826 13.3153 93.7833 12.788 93.7833 12.116C93.7833 11.4347 93.5826 10.9027 93.1813 10.52ZM96.3651 15V9.19H97.3731V9.862C97.7838 9.32067 98.3391 9.05 99.0391 9.05C99.7858 9.05 100.341 9.316 100.705 9.848C100.929 10.1747 101.041 10.6927 101.041 11.402V15H100.033V11.43C100.033 10.954 99.9444 10.5993 99.7671 10.366C99.5524 10.086 99.2351 9.946 98.8151 9.946C98.3858 9.946 98.0451 10.0953 97.7931 10.394C97.5131 10.7207 97.3731 11.2433 97.3731 11.962V15H96.3651Z" fill="black"/>
<path d="M120.867 13.582C120.784 13.582 120.7 13.5542 120.626 13.4707L117.184 10.0566C117.119 9.9917 117.082 9.92676 117.082 9.83398C117.082 9.65771 117.221 9.51855 117.388 9.51855C117.481 9.51855 117.574 9.56494 117.639 9.62988L119.438 11.4482L120.542 12.5708L120.524 11.272V0.343262C120.524 0.157715 120.682 0 120.867 0C121.053 0 121.21 0.157715 121.21 0.343262V11.272L121.183 12.5615L122.277 11.4482L124.086 9.62988C124.151 9.56494 124.244 9.51855 124.328 9.51855C124.495 9.51855 124.643 9.65771 124.643 9.83398C124.643 9.92676 124.606 9.9917 124.541 10.0566L121.108 13.4707C121.034 13.5542 120.951 13.582 120.867 13.582ZM115.505 19.3804C113.863 19.3804 113 18.5269 113 16.8848V7.10645C113 5.46436 113.863 4.61084 115.505 4.61084H119.021V5.29736H115.523C114.317 5.29736 113.687 5.92822 113.687 7.14355V16.8477C113.687 18.063 114.317 18.6938 115.523 18.6938H126.211C127.371 18.6938 128.039 18.063 128.039 16.8477V7.14355C128.039 5.92822 127.371 5.29736 126.211 5.29736H122.704V4.61084H126.229C127.872 4.61084 128.734 5.48291 128.734 7.10645V16.8848C128.734 18.5083 127.872 19.3804 126.229 19.3804H115.505Z" fill="black"/>
</svg>
