<svg width="126" height="18" viewBox="0 0 126 18" fill="none" xmlns="http://www.w3.org/2000/svg">
<path d="M38.2937 13H37.2297L38.7837 3.144L42.3677 11.026L46.0217 3.13L47.4777 13H46.4137L45.5317 6.504L42.3537 13.392L39.2177 6.504L38.2937 13ZM54.2996 12.3C53.7209 12.8787 52.9883 13.168 52.1016 13.168C51.2149 13.168 50.4776 12.8787 49.8896 12.3C49.3109 11.7213 49.0216 10.9933 49.0216 10.116C49.0216 9.22933 49.3109 8.49667 49.8896 7.918C50.4776 7.33933 51.2149 7.05 52.1016 7.05C52.9883 7.05 53.7209 7.33933 54.2996 7.918C54.8876 8.49667 55.1816 9.22933 55.1816 10.116C55.1816 10.9933 54.8876 11.7213 54.2996 12.3ZM53.5436 8.52C53.1516 8.13733 52.6709 7.946 52.1016 7.946C51.5323 7.946 51.0469 8.142 50.6456 8.534C50.2536 8.91667 50.0576 9.444 50.0576 10.116C50.0576 10.788 50.2583 11.3153 50.6596 11.698C51.0609 12.0807 51.5416 12.272 52.1016 12.272C52.6616 12.272 53.1423 12.0807 53.5436 11.698C53.9449 11.3153 54.1456 10.788 54.1456 10.116C54.1456 9.43467 53.9449 8.90267 53.5436 8.52ZM61.1794 8.016V2.794H62.1874V13H61.1794V12.188C60.6754 12.8413 60.0127 13.168 59.1914 13.168C58.4074 13.168 57.7401 12.8973 57.1894 12.356C56.6387 11.8147 56.3634 11.0587 56.3634 10.088C56.3634 9.136 56.6341 8.394 57.1754 7.862C57.7261 7.32067 58.3981 7.05 59.1914 7.05C60.0314 7.05 60.6941 7.372 61.1794 8.016ZM59.3034 7.946C58.7714 7.946 58.3187 8.13733 57.9454 8.52C57.5814 8.89333 57.3994 9.416 57.3994 10.088C57.3994 10.732 57.5674 11.2593 57.9034 11.67C58.2487 12.0713 58.7154 12.272 59.3034 12.272C59.8914 12.272 60.3581 12.062 60.7034 11.642C61.0581 11.222 61.2354 10.7087 61.2354 10.102C61.2354 9.41133 61.0394 8.87933 60.6474 8.506C60.2554 8.13267 59.8074 7.946 59.3034 7.946ZM68.4085 11.054L69.2485 11.516C69.0525 11.8893 68.8145 12.202 68.5345 12.454C68.0025 12.93 67.3585 13.168 66.6025 13.168C65.8185 13.168 65.1419 12.916 64.5725 12.412C64.0125 11.8987 63.7325 11.138 63.7325 10.13C63.7325 9.24333 63.9845 8.51067 64.4885 7.932C65.0019 7.344 65.6879 7.05 66.5465 7.05C67.5172 7.05 68.2499 7.40467 68.7445 8.114C69.1365 8.674 69.3185 9.402 69.2905 10.298H64.7685C64.7779 10.886 64.9599 11.362 65.3145 11.726C65.6692 12.09 66.1032 12.272 66.6165 12.272C67.0739 12.272 67.4705 12.132 67.8065 11.852C68.0679 11.628 68.2685 11.362 68.4085 11.054ZM64.8385 9.458H68.2545C68.1705 9.00067 67.9699 8.63667 67.6525 8.366C67.3445 8.086 66.9759 7.946 66.5465 7.946C66.1265 7.946 65.7532 8.09067 65.4265 8.38C65.1092 8.66 64.9132 9.01933 64.8385 9.458ZM70.8368 2.794H71.8448V13H70.8368V2.794ZM81.9305 12.3C81.3518 12.8787 80.6191 13.168 79.7325 13.168C78.8458 13.168 78.1085 12.8787 77.5205 12.3C76.9418 11.7213 76.6525 10.9933 76.6525 10.116C76.6525 9.22933 76.9418 8.49667 77.5205 7.918C78.1085 7.33933 78.8458 7.05 79.7325 7.05C80.6191 7.05 81.3518 7.33933 81.9305 7.918C82.5185 8.49667 82.8125 9.22933 82.8125 10.116C82.8125 10.9933 82.5185 11.7213 81.9305 12.3ZM81.1745 8.52C80.7825 8.13733 80.3018 7.946 79.7325 7.946C79.1631 7.946 78.6778 8.142 78.2765 8.534C77.8845 8.91667 77.6885 9.444 77.6885 10.116C77.6885 10.788 77.8891 11.3153 78.2905 11.698C78.6918 12.0807 79.1725 12.272 79.7325 12.272C80.2925 12.272 80.7731 12.0807 81.1745 11.698C81.5758 11.3153 81.7765 10.788 81.7765 10.116C81.7765 9.43467 81.5758 8.90267 81.1745 8.52ZM83.5183 7.19H84.6383L86.3743 11.11L88.1103 7.19H89.2303L86.3743 13.378L83.5183 7.19ZM94.6038 11.054L95.4438 11.516C95.2478 11.8893 95.0098 12.202 94.7298 12.454C94.1978 12.93 93.5538 13.168 92.7978 13.168C92.0138 13.168 91.3372 12.916 90.7678 12.412C90.2078 11.8987 89.9278 11.138 89.9278 10.13C89.9278 9.24333 90.1798 8.51067 90.6838 7.932C91.1972 7.344 91.8832 7.05 92.7418 7.05C93.7125 7.05 94.4452 7.40467 94.9398 8.114C95.3318 8.674 95.5138 9.402 95.4858 10.298H90.9638C90.9732 10.886 91.1552 11.362 91.5098 11.726C91.8645 12.09 92.2985 12.272 92.8118 12.272C93.2692 12.272 93.6658 12.132 94.0018 11.852C94.2632 11.628 94.4638 11.362 94.6038 11.054ZM91.0338 9.458H94.4498C94.3658 9.00067 94.1652 8.63667 93.8478 8.366C93.5398 8.086 93.1712 7.946 92.7418 7.946C92.3218 7.946 91.9485 8.09067 91.6218 8.38C91.3045 8.66 91.1085 9.01933 91.0338 9.458ZM97.0321 13V7.19H98.0401V7.82C98.3667 7.30667 98.8054 7.05 99.3561 7.05C99.6361 7.05 99.9347 7.12933 100.252 7.288L99.7761 8.198C99.5894 8.06733 99.3934 8.002 99.1881 8.002C98.8334 8.002 98.5627 8.12333 98.3761 8.366C98.1521 8.66467 98.0401 9.18733 98.0401 9.934V13H97.0321ZM100.635 7.19H101.755L103.491 11.11L105.227 7.19H106.347L103.491 13.378L100.635 7.19ZM107.409 7.19H108.417V13H107.409V7.19ZM107.409 5.496C107.269 5.356 107.199 5.188 107.199 4.992C107.199 4.796 107.269 4.628 107.409 4.488C107.549 4.348 107.717 4.278 107.913 4.278C108.109 4.278 108.277 4.348 108.417 4.488C108.557 4.628 108.627 4.796 108.627 4.992C108.627 5.188 108.557 5.356 108.417 5.496C108.277 5.636 108.109 5.706 107.913 5.706C107.717 5.706 107.549 5.636 107.409 5.496ZM114.633 11.054L115.473 11.516C115.277 11.8893 115.039 12.202 114.759 12.454C114.227 12.93 113.583 13.168 112.827 13.168C112.043 13.168 111.366 12.916 110.797 12.412C110.237 11.8987 109.957 11.138 109.957 10.13C109.957 9.24333 110.209 8.51067 110.713 7.932C111.226 7.344 111.912 7.05 112.771 7.05C113.742 7.05 114.474 7.40467 114.969 8.114C115.361 8.674 115.543 9.402 115.515 10.298H110.993C111.002 10.886 111.184 11.362 111.539 11.726C111.894 12.09 112.328 12.272 112.841 12.272C113.298 12.272 113.695 12.132 114.031 11.852C114.292 11.628 114.493 11.362 114.633 11.054ZM111.063 9.458H114.479C114.395 9.00067 114.194 8.63667 113.877 8.366C113.569 8.086 113.2 7.946 112.771 7.946C112.351 7.946 111.978 8.09067 111.651 8.38C111.334 8.66 111.138 9.01933 111.063 9.458ZM116.221 7.19H117.341L119.063 11.138L120.883 6.742L122.689 11.138L124.425 7.19H125.545L122.661 13.406L120.869 9.066L119.077 13.406L116.221 7.19Z" fill="black"/>
<path d="M-1.12054e-06 9C-1.10867e-06 8.8642 0.047387 8.75309 0.142163 8.65432L8.2574 0.148148C8.36403 0.0493839 8.4588 7.2354e-07 8.58912 7.34932e-07C8.86161 7.58754e-07 9.05116 0.209878 9.05116 0.469136C9.05116 0.604939 9.00377 0.740741 8.93269 0.814814L4.19386 5.75309L1.36241 8.60494L3.95692 8.53086L21.5498 8.53086C21.7986 8.53086 22 8.7284 22 9C22 9.27161 21.7986 9.46914 21.5498 9.46914L3.95692 9.46913L1.37426 9.40741L4.19386 12.2469L8.93269 17.1852C9.01562 17.2839 9.05116 17.4074 9.05116 17.5432C9.05116 17.7901 8.8616 18 8.58912 18C8.4588 18 8.34033 17.9506 8.15078 17.7531L0.142163 9.34568C0.0473869 9.24691 -1.13242e-06 9.1358 -1.12054e-06 9Z" fill="black"/>
</svg>
